<?xml version="1.0" encoding="utf-8"?>
<!-- Generator: Adobe Illustrator 27.2.0, SVG Export Plug-In . SVG Version: 6.00 Build 0)  -->
<svg version="1.1" id="Layer_1" xmlns="http://www.w3.org/2000/svg" xmlns:xlink="http://www.w3.org/1999/xlink" x="0px" y="0px"
	 viewBox="0 0 1072.8 348.02" style="enable-background:new 0 0 1072.8 348.02;" xml:space="preserve">
<style type="text/css">
	.st0{fill:#3192D0;}
	.st1{fill:#3C3C3B;}
</style>
<g>
	<path class="st0" d="M416.28,44.86v15.5h40.95v17.06h-40.95v16.7h44.92v18.14h-65.22V26.72h65.34v18.14H416.28z"/>
	<path class="st0" d="M540.71,55.55c0,17.3-11.41,28.83-31.59,28.83h-18.62v27.87h-20.3V26.72h38.91
		C529.3,26.72,540.71,38.25,540.71,55.55z M520.41,55.55c0-7.57-4.8-11.65-12.61-11.65h-17.29v23.3h17.29
		C515.61,67.2,520.41,63.23,520.41,55.55z"/>
	<path class="st0" d="M619.86,55.55c0,17.3-11.41,28.83-31.59,28.83h-18.62v27.87h-20.3V26.72h38.91
		C608.45,26.72,619.86,38.25,619.86,55.55z M599.57,55.55c0-7.57-4.8-11.65-12.61-11.65h-17.29v23.3h17.29
		C594.76,67.2,599.57,63.23,599.57,55.55z"/>
	<path class="st0" d="M628.51,26.72h20.3v85.52h-20.3V26.72z"/>
	<path class="st0" d="M682.56,69.48c0-27.51,16.57-44.68,42.64-44.68c20.3,0,37.11,11.17,40.47,32.55h-20.54
		c-2.64-10.09-10.33-15.01-19.94-15.01c-13.81,0-21.5,10.21-21.5,27.15c0,17.06,7.69,27.15,21.5,27.15c10.09,0,18.5-5.89,20.42-17.3
		h20.3c-2.64,22.82-19.7,34.83-40.71,34.83C699.73,114.16,682.56,96.99,682.56,69.48z"/>
	<path class="st0" d="M834.85,86.78h-45.88c1.32,8.89,6.85,13.09,14.17,13.09c6.25,0,10.33-2.52,12.49-6.97h17.77
		c-3.36,13.09-15.37,20.78-30.27,20.78c-19.22,0-32.19-12.73-32.19-32.43c0-19.58,12.61-32.43,31.95-32.43
		c19.34,0,31.95,13.33,31.95,34.23V86.78z M789.09,74.89h27.38c-1.32-7.69-6.25-12.25-13.81-12.25
		C795.82,62.63,790.54,66.24,789.09,74.89z"/>
	<path class="st0" d="M902.24,71.64v40.6H883.5V75.37c0-6.85-3-10.57-9.97-10.57c-5.76,0-11.77,3.72-11.77,12.85v34.59h-18.74V50.26
		h18.26v8.77c4.08-5.77,10.45-10.21,19.46-10.21C892.99,48.82,902.24,56.27,902.24,71.64z"/>
	<path class="st0" d="M934.43,63.96V92.9c0,4.56,2.28,5.41,7.09,5.41h4.8v13.93c-2.88,0.36-5.89,0.48-8.65,0.48
		c-15.49,0-21.98-5.04-21.98-17.78V63.96h-9.25V50.26h9.25V31.88h18.74v18.38h11.89v13.69H934.43z"/>
	<path class="st0" d="M993.64,49.54V66.6h-4.8c-10.45,0-16.45,5.17-16.45,16.82v28.83h-18.74V50.26h18.26v11.53
		c2.64-7.69,8.41-12.49,17.66-12.49C991,49.3,992.32,49.42,993.64,49.54z"/>
	<path class="st0" d="M1059.7,86.78h-45.88c1.32,8.89,6.85,13.09,14.17,13.09c6.25,0,10.33-2.52,12.49-6.97h17.78
		c-3.36,13.09-15.37,20.78-30.27,20.78c-19.22,0-32.19-12.73-32.19-32.43c0-19.58,12.61-32.43,31.95-32.43
		c19.34,0,31.95,13.33,31.95,34.23V86.78z M1013.94,74.89h27.38c-1.32-7.69-6.25-12.25-13.81-12.25
		C1020.66,62.63,1015.38,66.24,1013.94,74.89z"/>
	<path class="st1" d="M403.56,147.65v21.42h35.01v7.17h-35.01v24.25h38.4v7.17h-46.33v-67.2h46.71v7.17H403.56z"/>
	<path class="st1" d="M490.37,158.97l-19.16,48.7h-7.93l-19.06-48.7h8.21l8.02,21.71c2.26,6.13,4.81,12.74,6.89,18.88
		c2.08-6.13,4.62-12.83,6.89-18.97l8.02-21.61H490.37z"/>
	<path class="st1" d="M494.71,146.99c0-2.74,2.26-5.1,5.1-5.1c2.74,0,5.09,2.26,5.09,5.1c0,2.74-2.26,5.1-5.09,5.1
		C497.07,152.09,494.71,149.82,494.71,146.99z M496.03,158.97h7.55v48.7h-7.55V158.97z"/>
	<path class="st1" d="M559.07,140.48v67.2h-7.17v-7.55c-3.68,5.57-9.44,8.68-16.7,8.68c-13.68,0-22.65-9.91-22.65-25.48
		s8.96-25.48,22.65-25.48c7.08,0,12.64,2.93,16.32,8.12v-25.48H559.07z M551.8,183.32c0-11.8-6.23-18.69-15.66-18.69
		c-9.44,0-15.66,7.27-15.66,19.06c0,11.8,6.23,18.31,15.66,18.31C545.58,202.01,551.8,195.12,551.8,183.32z"/>
	<path class="st1" d="M612.86,185.97h-36.99c0.75,10.95,6.51,15.95,15,15.95c6.89,0,11.23-3.59,12.93-9.06h7.83
		c-2.36,9.15-9.34,15.95-20.95,15.95c-13.3,0-22.65-9.72-22.65-25.48c0-15.29,8.96-25.48,22.46-25.48
		c14.53,0,22.36,11.51,22.36,25.48V185.97z M576.06,179.17h28.69c-0.75-8.02-5.57-14.44-14.25-14.44
		C582.85,164.73,577.28,169.54,576.06,179.17z"/>
	<path class="st1" d="M661.45,174.74v32.94h-7.55v-32.18c0-7.55-4.15-10.85-11.13-10.85c-6.32,0-13.4,4.72-13.4,15.48v27.56h-7.55
		v-48.7h7.17v7.27c3.21-4.91,8.49-8.4,15.29-8.4C655.13,157.84,661.45,163.98,661.45,174.74z"/>
	<path class="st1" d="M670.42,183.32c0-15.67,9.06-25.48,22.55-25.48c11.61,0,19.44,6.89,20.95,17.65h-7.83
		c-1.32-7.36-6.98-10.85-13.12-10.85c-8.3,0-14.63,5.95-14.63,18.69c0,12.74,6.51,18.69,14.63,18.69c6.23,0,11.89-3.59,13.21-11.04
		h7.74c-1.6,11.14-10,17.84-20.95,17.84C679.67,208.8,670.42,198.99,670.42,183.32z"/>
	<path class="st1" d="M764.4,185.97h-36.99c0.75,10.95,6.51,15.95,15,15.95c6.89,0,11.23-3.59,12.93-9.06h7.83
		c-2.36,9.15-9.34,15.95-20.95,15.95c-13.3,0-22.65-9.72-22.65-25.48c0-15.29,8.96-25.48,22.46-25.48
		c14.53,0,22.36,11.51,22.36,25.48V185.97z M727.6,179.17h28.69c-0.75-8.02-5.57-14.44-14.25-14.44
		C734.4,164.73,728.83,169.54,727.6,179.17z"/>
	<path class="st1" d="M802.62,153.78v5.19H813v6.61h-10.38v42.09h-7.55v-42.09h-8.02v-6.61h8.02v-5c0-8.59,3.96-13.68,13.59-13.68
		c1.42,0,3.68,0.09,4.81,0.19v6.42h-4.34C804.79,146.89,802.62,149.35,802.62,153.78z"/>
	<path class="st1" d="M815.36,183.32c0-15.57,9.91-25.48,23.59-25.48c13.68,0,23.59,9.91,23.59,25.48s-9.91,25.48-23.59,25.48
		C825.27,208.8,815.36,198.9,815.36,183.32z M854.62,183.32c0-11.8-6.23-18.69-15.66-18.69c-9.44,0-15.66,6.89-15.66,18.69
		s6.23,18.69,15.66,18.69C848.39,202.01,854.62,195.12,854.62,183.32z"/>
	<path class="st1" d="M896.89,158.31v7.27H895c-9.72,0-15.95,4.91-15.95,14.34v27.75h-7.55v-48.7h7.17v8.59
		c2.74-5.1,7.74-9.34,15.66-9.34C895.1,158.22,895.85,158.22,896.89,158.31z"/>
	<path class="st1" d="M445.83,256.57c0,12.08-7.36,20.67-22.27,20.67h-20v25.86h-7.93v-67.2h27.93
		C438.47,235.91,445.83,244.49,445.83,256.57z M437.62,256.57c0-8.49-4.62-13.5-14.06-13.5h-20v26.99h20
		C433,270.07,437.62,265.07,437.62,256.57z"/>
	<path class="st1" d="M448.57,278.75c0-15.57,9.91-25.48,23.59-25.48s23.59,9.91,23.59,25.48s-9.91,25.48-23.59,25.48
		S448.57,294.33,448.57,278.75z M487.82,278.75c0-11.8-6.23-18.69-15.66-18.69c-9.44,0-15.66,6.89-15.66,18.69
		s6.23,18.69,15.66,18.69C481.6,297.44,487.82,290.55,487.82,278.75z"/>
	<path class="st1" d="M504.72,293.29v-57.38h7.55v56.72c0,2.55,1.04,4.15,4.62,4.15h3.59v6.32c-1.79,0.19-3.49,0.28-4.81,0.28
		C508.87,303.38,504.72,300.74,504.72,293.29z"/>
	<path class="st1" d="M525.76,242.42c0-2.74,2.26-5.1,5.09-5.1c2.74,0,5.1,2.26,5.1,5.1c0,2.74-2.26,5.1-5.1,5.1
		C528.12,247.51,525.76,245.25,525.76,242.42z M527.08,254.4h7.55v48.7h-7.55V254.4z"/>
	<path class="st1" d="M543.6,278.75c0-15.67,9.06-25.48,22.55-25.48c11.61,0,19.44,6.89,20.95,17.65h-7.83
		c-1.32-7.36-6.98-10.85-13.12-10.85c-8.3,0-14.63,5.95-14.63,18.69c0,12.74,6.51,18.69,14.63,18.69c6.23,0,11.89-3.59,13.21-11.04
		h7.74c-1.6,11.14-10,17.84-20.95,17.84C552.84,304.23,543.6,294.42,543.6,278.75z"/>
	<path class="st1" d="M633.24,254.4l-18.4,47.09l-7.74,20.1h-7.45l7.74-19.91l-18.4-47.28h8.3l7.17,19.54
		c2.36,6.42,4.62,12.74,6.7,18.69c2.26-6.23,4.62-12.83,6.98-19.25l6.89-18.97H633.24z"/>
	<path class="st1" d="M703.54,303.1l-7.08-7.93c-4.81,5.66-11.79,9.44-21.7,9.44c-12.74,0-20.29-8.59-20.29-18.69
		c0-9.53,5.66-14.82,15.66-20.39c-5.57-6.42-8.02-10.95-8.02-16.33c0-8.02,6.04-14.82,16.51-14.82c8.59,0,16.42,5.1,16.42,14.53
		c0,6.89-5.29,13.02-13.78,17.93l13.97,15.57c1.32-3.78,1.89-7.93,1.89-11.8h7.64c-0.19,6.04-1.42,12.36-4.06,17.93l13.02,14.53
		H703.54z M691.46,289.51l-16.89-18.97c-7.36,3.96-12.08,7.64-12.08,15.01c0,6.04,4.62,11.89,12.74,11.89
		C682.59,297.44,687.97,294.23,691.46,289.51z M670.04,249.21c0,3.3,2.17,7.46,6.79,12.65c6.7-3.77,10.29-7.46,10.29-12.65
		c0-4.81-3.96-8.02-8.59-8.02C673.82,241.19,670.04,244.12,670.04,249.21z"/>
	<path class="st1" d="M787.99,256.57c0,12.08-7.36,20.67-22.27,20.67h-20v25.86h-7.93v-67.2h27.93
		C780.63,235.91,787.99,244.49,787.99,256.57z M779.78,256.57c0-8.49-4.62-13.5-14.06-13.5h-20v26.99h20
		C775.16,270.07,779.78,265.07,779.78,256.57z"/>
	<path class="st1" d="M820.83,253.74v7.27h-1.89c-9.72,0-15.95,4.91-15.95,14.34v27.75h-7.55v-48.7h7.17v8.59
		c2.74-5.1,7.74-9.34,15.66-9.34C819.04,253.65,819.79,253.65,820.83,253.74z"/>
	<path class="st1" d="M867.16,296.97v6.13c-1.23,0.19-2.74,0.28-4.15,0.28c-5.38,0-7.83-2.36-8.21-6.98
		c-3.4,5.19-8.87,7.83-15.85,7.83c-10.57,0-17.17-5.1-17.17-14.25c0-7.64,4.62-13.68,18.02-15.1l6.98-0.75
		c4.91-0.57,7.64-2.36,7.64-6.7c0-5.1-2.64-7.64-10.95-7.64c-8.3,0-11.79,2.36-12.27,9.63h-7.55c0.57-9.44,5.57-16.14,19.82-16.14
		c13.49,0,18.31,5.95,18.31,14.16v27.18c0,1.51,0.85,2.36,2.64,2.36H867.16z M854.42,283.85v-5.76c-1.51,1.13-3.59,1.79-6.42,2.08
		l-7.08,0.85c-8.87,1.04-11.32,4.06-11.32,8.78c0,4.81,3.02,8.02,9.72,8.02C846.59,297.82,854.42,293.48,854.42,283.85z"/>
	<path class="st1" d="M870.94,278.75c0-15.67,9.06-25.48,22.55-25.48c11.61,0,19.44,6.89,20.95,17.65h-7.83
		c-1.32-7.36-6.98-10.85-13.12-10.85c-8.3,0-14.63,5.95-14.63,18.69c0,12.74,6.51,18.69,14.63,18.69c6.23,0,11.89-3.59,13.21-11.04
		h7.74c-1.6,11.14-10,17.84-20.95,17.84C880.19,304.23,870.94,294.42,870.94,278.75z"/>
	<path class="st1" d="M931.9,261.01v31.62c0,2.55,1.23,4.15,5.57,4.15h4.44v6.32c-2.08,0.19-3.87,0.28-5.38,0.28
		c-7.55,0-12.17-2.64-12.17-10.1v-32.28h-8.02v-6.61h8.02v-13.78h7.55v13.78h10v6.61H931.9z"/>
	<path class="st1" d="M948.6,242.42c0-2.74,2.26-5.1,5.09-5.1c2.74,0,5.1,2.26,5.1,5.1c0,2.74-2.26,5.1-5.1,5.1
		C950.96,247.51,948.6,245.25,948.6,242.42z M949.93,254.4h7.55v48.7h-7.55V254.4z"/>
	<path class="st1" d="M966.44,278.75c0-15.67,9.06-25.48,22.55-25.48c11.61,0,19.44,6.89,20.95,17.65h-7.83
		c-1.32-7.36-6.98-10.85-13.12-10.85c-8.3,0-14.63,5.95-14.63,18.69c0,12.74,6.51,18.69,14.63,18.69c6.23,0,11.89-3.59,13.21-11.04
		h7.74c-1.6,11.14-10,17.84-20.95,17.84C975.69,304.23,966.44,294.42,966.44,278.75z"/>
	<path class="st1" d="M1060.42,281.4h-36.99c0.75,10.95,6.51,15.95,15,15.95c6.89,0,11.23-3.59,12.93-9.06h7.83
		c-2.36,9.15-9.34,15.95-20.95,15.95c-13.3,0-22.65-9.72-22.65-25.48c0-15.29,8.96-25.48,22.46-25.48
		c14.53,0,22.36,11.51,22.36,25.48V281.4z M1023.62,274.6h28.69c-0.75-8.02-5.57-14.44-14.25-14.44
		C1030.42,260.16,1024.85,264.97,1023.62,274.6z"/>
</g>
<g>
	<g>
		<path class="st0" d="M274.9,248.79l-0.18,0.19c-3.05,3.21-8.13,3.34-11.35,0.29c-3.21-3.05-3.34-8.13-0.28-11.35
			c0.06-0.06,0.14-0.15,0.2-0.2l0.16-0.15l0.03-0.03c3.17-3.1,8.24-3.05,11.34,0.12C277.85,240.75,277.85,245.68,274.9,248.79z"/>
		<path class="st0" d="M255.01,265.35l-0.43,0.28c-3.89,2.54-9.1,1.45-11.64-2.44s-1.45-9.1,2.44-11.64
			c0.06-0.04,0.11-0.07,0.17-0.11l0.05-0.03l0.37-0.23l0.05-0.03c3.95-2.43,9.13-1.19,11.56,2.76
			C259.96,257.8,258.8,262.87,255.01,265.35z"/>
		<path class="st0" d="M231.9,277.29l-0.47,0.19c-4.5,1.77-9.58-0.45-11.35-4.95s0.45-9.58,4.95-11.35c0.06-0.03,0.13-0.05,0.2-0.07
			l0.05-0.02l0.42-0.15l0.05-0.02c4.54-1.64,9.56,0.72,11.19,5.26C238.54,270.65,236.28,275.56,231.9,277.29z"/>
		<path class="st0" d="M206.31,284.07l-0.52,0.06c-4.94,0.58-9.41-2.96-9.99-7.9c-0.58-4.94,2.96-9.41,7.9-9.99
			c0.05-0.01,0.09-0.01,0.14-0.02l0.08-0.01l0.42-0.04l0.07-0.01c4.95-0.48,9.34,3.15,9.82,8.09
			C214.69,279.15,211.16,283.5,206.31,284.07z"/>
		<path class="st0" d="M179.73,283.7l-0.51-0.07c-5.06-0.72-8.57-5.41-7.85-10.46c0.72-5.06,5.41-8.58,10.46-7.85
			c0.05,0.01,0.09,0.01,0.14,0.02l0.07,0.01l0.43,0.07l0.06,0.01c5.04,0.82,8.46,5.58,7.63,10.62
			C189.34,281.01,184.69,284.4,179.73,283.7z"/>
		<path class="st0" d="M154.19,277l-0.48-0.19c-4.86-1.92-7.24-7.41-5.32-12.27c1.92-4.86,7.41-7.24,12.27-5.32
			c0.02,0.01,0.04,0.02,0.06,0.02l0.08,0.03l0.4,0.16l0.05,0.02c4.83,1.98,7.14,7.5,5.16,12.33
			C164.45,276.58,158.99,278.9,154.19,277z"/>
		<path class="st0" d="M130.77,264.29l-0.43-0.31c-4.29-3.13-5.22-9.14-2.1-13.42c3.13-4.29,9.14-5.22,13.42-2.1
			c0.02,0.01,0.04,0.03,0.06,0.04l0.07,0.06l0.34,0.25l0.05,0.04c4.24,3.18,5.11,9.2,1.93,13.44
			C140.96,266.5,135.01,267.38,130.77,264.29z"/>
		<path class="st0" d="M111.41,244.94l-0.31-0.45c-3.08-4.42-2-10.5,2.42-13.58c4.42-3.08,10.5-2,13.58,2.42
			c0.01,0.02,0.03,0.04,0.04,0.06l0.06,0.09l0.23,0.33l0.05,0.08c3.02,4.46,1.86,10.52-2.59,13.55
			C120.47,250.43,114.46,249.31,111.41,244.94z"/>
		<path class="st0" d="M99.54,220.74l-0.17-0.49c-1.78-5.17,0.97-10.81,6.15-12.59c5.17-1.78,10.81,0.97,12.59,6.15
			c0.01,0.02,0.01,0.04,0.02,0.06l0.03,0.09l0.13,0.4l0.02,0.06c1.71,5.19-1.11,10.79-6.3,12.51
			C106.85,228.62,101.3,225.85,99.54,220.74z"/>
		<path class="st0" d="M94.38,194.11l-0.02-0.54c-0.19-5.52,4.13-10.14,9.65-10.33c5.52-0.19,10.14,4.13,10.33,9.65l0,0.07l0,0.06
			l0.01,0.41l0,0.08c0.15,5.52-4.21,10.11-9.73,10.26C99.14,203.9,94.57,199.59,94.38,194.11z"/>
		<path class="st0" d="M98.08,166.76l0.16-0.51c1.69-5.31,7.36-8.24,12.67-6.55c5.31,1.69,8.24,7.36,6.55,12.67l-0.02,0.07
			l-0.02,0.05l-0.13,0.39l-0.02,0.07c-1.73,5.29-7.42,8.18-12.72,6.45C99.29,177.68,96.41,172.03,98.08,166.76z"/>
		<path class="st0" d="M109.96,142.42l0.29-0.43c3.13-4.67,9.45-5.91,14.12-2.78s5.91,9.45,2.78,14.12l-0.04,0.06l-0.02,0.03
			l-0.24,0.35l-0.03,0.04c-3.16,4.64-9.49,5.84-14.13,2.67C108.05,153.34,106.85,147.06,109.96,142.42z"/>
		<path class="st0" d="M126.77,122.14l0.39-0.38c4.05-3.96,10.55-3.89,14.51,0.17c3.96,4.05,3.89,10.55-0.17,14.51l-0.06,0.05
			l-0.04,0.04l-0.29,0.28l-0.06,0.06c-4.08,3.93-10.58,3.8-14.51-0.28C122.64,132.53,122.75,126.07,126.77,122.14z"/>
		<path class="st0" d="M149.03,106.39l0.47-0.24c5.06-2.57,11.25-0.54,13.82,4.52c2.57,5.06,0.54,11.25-4.52,13.82l-0.01,0.01
			l-0.38,0.19l-0.04,0.02c-5.05,2.59-11.25,0.59-13.84-4.47S143.95,109,149,106.41L149.03,106.39z"/>
		<path class="st0" d="M174.07,97.19l0.51-0.12c5.5-1.3,11.01,2.1,12.31,7.61s-2.1,11.01-7.6,12.31l-0.01,0l-0.42,0.1l-0.04,0.01
			c-5.5,1.32-11.02-2.06-12.34-7.56c-1.32-5.5,2.06-11.02,7.56-12.34L174.07,97.19z"/>
		<path class="st0" d="M200.98,94.48l0.54,0.03c5.58,0.3,9.86,5.06,9.56,10.63c-0.29,5.52-4.96,9.77-10.47,9.57l-0.1,0l-0.41-0.02
			l-0.05,0c-5.58-0.21-9.94-4.9-9.73-10.49c0.21-5.58,4.9-9.94,10.49-9.73C200.86,94.48,200.95,94.48,200.98,94.48z"/>
		<path class="st0" d="M229.07,102.65l0.52,0.35c4.57,3.02,5.83,9.18,2.8,13.75c-2.99,4.52-9.05,5.8-13.6,2.9l-0.18-0.12l-0.27-0.17
			l-0.08-0.05c-4.63-2.95-5.99-9.08-3.04-13.71c2.95-4.63,9.08-5.99,13.71-3.04C228.96,102.57,229.03,102.62,229.07,102.65z"/>
		<path class="st0" d="M245.31,130.48l0.03,0.62c0.24,5.36-3.9,9.9-9.26,10.14c-5.25,0.24-9.72-3.75-10.12-8.96l-0.02-0.26
			l-0.02-0.32l0-0.06c-0.4-5.35,3.61-10.02,8.96-10.42s10.02,3.61,10.42,8.96C245.29,130.28,245.3,130.4,245.31,130.48z"/>
		<path class="st0" d="M238.43,158.63l-0.25,0.48c-2.38,4.61-8.04,6.41-12.64,4.04c-4.51-2.33-6.34-7.8-4.18-12.35l0.05-0.11
			l0.18-0.37l0.01-0.02c2.23-4.69,7.83-6.68,12.52-4.45c4.69,2.23,6.68,7.83,4.45,12.52C238.53,158.43,238.47,158.55,238.43,158.63z
			"/>
		<path class="st0" d="M222.42,180.45l-0.38,0.38c-3.51,3.46-9.15,3.42-12.61-0.09c-3.37-3.42-3.42-8.87-0.17-12.34l0.08-0.09
			l0.28-0.3l0.01-0.01c3.37-3.6,9.02-3.78,12.61-0.41c3.6,3.37,3.78,9.02,0.41,12.61C222.59,180.27,222.49,180.37,222.42,180.45z"/>
		<path class="st0" d="M200.55,195.77l-0.46,0.24c-4.06,2.11-9.07,0.54-11.19-3.53c-2.03-3.9-0.66-8.67,3.05-10.92l0.09-0.06
			l0.37-0.22c3.93-2.37,9.04-1.11,11.41,2.82s1.11,9.04-2.82,11.41C200.86,195.6,200.69,195.69,200.55,195.77z"/>
		<path class="st0" d="M175.43,204.5l-0.51,0.09c-4.08,0.71-7.95-2.02-8.66-6.1c-0.67-3.88,1.77-7.58,5.52-8.54l0.12-0.03l0.42-0.11
			c4.02-1.01,8.1,1.43,9.11,5.45c1.01,4.02-1.43,8.1-5.45,9.11c-0.18,0.04-0.35,0.08-0.53,0.11L175.43,204.5z"/>
		<path class="st0" d="M149.7,205.8l-0.25-0.01c-3.56-0.17-6.31-3.19-6.14-6.74c0.16-3.33,2.82-5.96,6.08-6.14l0.06,0l0.23-0.01
			c3.56-0.18,6.6,2.56,6.78,6.12c0.18,3.56-2.56,6.6-6.12,6.78c-0.21,0.01-0.42,0.01-0.63,0L149.7,205.8z"/>
	</g>
	<g>
		<path class="st0" d="M95.7,339.77l-0.21-0.12c-1.47-0.87-1.96-2.77-1.09-4.24c0.87-1.47,2.77-1.96,4.24-1.09
			c0.03,0.02,0.07,0.04,0.09,0.06l0.2,0.13l0,0c1.44,0.92,1.86,2.83,0.94,4.27C98.98,340.18,97.12,340.61,95.7,339.77z"/>
		<path class="st0" d="M75.41,325.84l-0.38-0.3c-1.52-1.2-1.77-3.41-0.57-4.93s3.41-1.77,4.93-0.57c0.03,0.02,0.05,0.04,0.08,0.06
			l0.02,0.01l0.36,0.3l0.01,0.01c1.47,1.25,1.65,3.46,0.4,4.93C79.02,326.81,76.88,327.01,75.41,325.84z"/>
		<path class="st0" d="M56.96,309.1l-0.34-0.35c-1.49-1.56-1.44-4.03,0.12-5.53c1.56-1.49,4.03-1.44,5.53,0.12
			c0.02,0.02,0.04,0.05,0.06,0.07l0.02,0.02l0.31,0.35l0.01,0.01c1.44,1.6,1.32,4.07-0.28,5.51
			C60.82,310.72,58.41,310.62,56.96,309.1z"/>
		<path class="st0" d="M40.95,289.97l-0.29-0.4c-1.38-1.9-0.96-4.57,0.94-5.95c1.9-1.38,4.57-0.96,5.95,0.94
			c0.02,0.03,0.04,0.06,0.06,0.08l0.02,0.02l0.26,0.39l0.01,0.01c1.32,1.94,0.83,4.59-1.11,5.91
			C44.89,292.29,42.3,291.83,40.95,289.97z"/>
		<path class="st0" d="M27.63,268.82l-0.23-0.43c-1.21-2.24-0.36-5.04,1.88-6.25s5.04-0.36,6.25,1.88c0.02,0.03,0.03,0.07,0.05,0.1
			l0.01,0.03l0.21,0.42l0.01,0.01c1.14,2.27,0.22,5.04-2.06,6.18C31.52,271.87,28.81,271,27.63,268.82z"/>
		<path class="st0" d="M17.3,245.99l-0.17-0.46c-0.95-2.55,0.35-5.38,2.9-6.33s5.38,0.35,6.33,2.9c0.01,0.03,0.02,0.06,0.03,0.09
			l0.01,0.03l0.15,0.44l0.01,0.02c0.88,2.57-0.49,5.37-3.05,6.25C20.98,249.8,18.23,248.48,17.3,245.99z"/>
		<path class="st0" d="M10.16,221.94l-0.11-0.48c-0.63-2.82,1.15-5.61,3.97-6.23c2.82-0.63,5.61,1.15,6.24,3.97
			c0.01,0.03,0.01,0.07,0.02,0.1l0.01,0.03l0.09,0.46l0,0.02c0.56,2.83-1.29,5.57-4.11,6.13C13.48,226.47,10.78,224.69,10.16,221.94
			z"/>
		<path class="st0" d="M6.36,197.09l-0.04-0.49c-0.25-3.04,2.01-5.71,5.05-5.96c3.04-0.25,5.71,2.01,5.96,5.05
			c0,0.04,0.01,0.07,0.01,0.11l0,0.04l0.03,0.46l0,0.02c0.17,3.04-2.15,5.65-5.2,5.83C9.19,202.32,6.61,200.06,6.36,197.09z"/>
		<path class="st0" d="M6,171.92l0.03-0.49c0.18-3.2,2.91-5.65,6.11-5.47s5.65,2.91,5.47,6.11c0,0.03,0,0.06-0.01,0.09l0,0.04
			l-0.03,0.46l0,0.02c-0.24,3.19-3.03,5.58-6.22,5.34C8.2,177.78,5.83,175.06,6,171.92z"/>
		<path class="st0" d="M9.08,146.89l0.1-0.49c0.64-3.28,3.82-5.42,7.1-4.77c3.28,0.64,5.42,3.82,4.77,7.1
			c-0.01,0.03-0.01,0.06-0.02,0.09l-0.01,0.04l-0.1,0.45l0,0.02c-0.71,3.26-3.93,5.33-7.19,4.62
			C10.5,153.26,8.45,150.11,9.08,146.89z"/>
		<path class="st0" d="M15.7,122.48l0.17-0.47c1.16-3.28,4.76-5,8.04-3.84c3.28,1.16,5,4.76,3.84,8.04
			c-0.01,0.03-0.02,0.06-0.03,0.09l-0.02,0.04l-0.16,0.43l-0.01,0.02c-1.23,3.26-4.86,4.9-8.11,3.67
			C16.21,129.26,14.57,125.7,15.7,122.48z"/>
		<path class="st0" d="M25.84,99.25l0.23-0.44c1.69-3.2,5.66-4.42,8.86-2.73c3.2,1.69,4.42,5.66,2.73,8.86
			c-0.02,0.03-0.03,0.06-0.05,0.09l-0.02,0.04l-0.22,0.4l-0.01,0.02c-1.76,3.16-5.74,4.3-8.9,2.55
			C25.33,106.31,24.18,102.39,25.84,99.25z"/>
		<path class="st0" d="M39.28,77.74l0.29-0.4c2.22-3.02,6.46-3.66,9.48-1.45c3.02,2.22,3.66,6.46,1.45,9.48
			c-0.02,0.02-0.03,0.04-0.05,0.06l-0.03,0.04l-0.28,0.36l-0.01,0.02c-2.27,2.98-6.52,3.55-9.5,1.29
			C37.69,84.9,37.1,80.71,39.28,77.74z"/>
		<path class="st0" d="M55.74,58.41l0.35-0.35c2.71-2.74,7.13-2.77,9.87-0.06c2.74,2.71,2.77,7.13,0.06,9.87
			c-0.02,0.02-0.04,0.04-0.06,0.06l-0.04,0.04l-0.33,0.32l-0.02,0.02c-2.75,2.7-7.17,2.65-9.87-0.1
			C53.06,65.47,53.08,61.11,55.74,58.41z"/>
		<path class="st0" d="M74.85,41.64l0.4-0.3c3.17-2.39,7.67-1.76,10.06,1.4c2.39,3.17,1.76,7.67-1.4,10.06
			c-0.02,0.02-0.04,0.03-0.06,0.05l-0.04,0.03l-0.37,0.27l-0.02,0.01c-3.2,2.34-7.69,1.64-10.03-1.57
			C71.06,48.43,71.73,43.99,74.85,41.64z"/>
		<path class="st0" d="M96.19,27.78l0.44-0.24c3.57-1.96,8.06-0.66,10.02,2.92c1.96,3.57,0.66,8.06-2.92,10.02
			c-0.02,0.01-0.05,0.03-0.07,0.04l-0.05,0.03l-0.4,0.21l-0.02,0.01c-3.6,1.9-8.07,0.52-9.97-3.08
			C91.34,34.12,92.68,29.71,96.19,27.78z"/>
		<path class="st0" d="M119.35,17.13l0.47-0.17c3.92-1.46,8.29,0.53,9.75,4.46c1.46,3.92-0.53,8.29-4.46,9.75
			c-0.03,0.01-0.05,0.02-0.08,0.03l-0.05,0.02l-0.43,0.15l-0.03,0.01c-3.95,1.4-8.28-0.67-9.67-4.61
			C113.47,22.86,115.48,18.57,119.35,17.13z"/>
		<path class="st0" d="M143.84,9.98l0.49-0.1c4.19-0.89,8.31,1.79,9.19,5.98c0.89,4.19-1.79,8.31-5.98,9.19
			c-0.02,0-0.03,0.01-0.05,0.01l-0.06,0.01l-0.45,0.09l-0.03,0.01c-4.2,0.84-8.28-1.89-9.12-6.09
			C137.01,14.91,139.7,10.86,143.84,9.98z"/>
		<path class="st0" d="M169.14,6.5l0.5-0.03c4.36-0.27,8.11,3.04,8.38,7.4c0.27,4.36-3.04,8.11-7.4,8.38c-0.02,0-0.03,0-0.05,0
			l-0.06,0l-0.46,0.02l-0.03,0c-4.36,0.22-8.07-3.14-8.28-7.5C161.53,10.46,164.83,6.77,169.14,6.5z"/>
		<path class="st0" d="M194.69,6.74l0.5,0.04c4.43,0.37,7.72,4.26,7.35,8.69c-0.37,4.43-4.26,7.72-8.69,7.35c-0.02,0-0.04,0-0.05,0
			l-0.06-0.01l-0.45-0.04l-0.03,0c-4.42-0.42-7.67-4.35-7.25-8.78C186.44,9.61,190.31,6.38,194.69,6.74z"/>
		<path class="st0" d="M220,10.71l0.49,0.12c4.4,1.05,7.12,5.47,6.08,9.87s-5.47,7.12-9.87,6.08c-0.02,0-0.04-0.01-0.05-0.01
			l-0.06-0.02l-0.44-0.11l-0.03-0.01c-4.39-1.1-7.06-5.55-5.95-9.94C211.25,12.33,215.64,9.68,220,10.71z"/>
		<path class="st0" d="M244.46,18.56l0.47,0.19c4.26,1.75,6.3,6.63,4.54,10.89s-6.63,6.3-10.89,4.54c-0.02-0.01-0.03-0.01-0.05-0.02
			l-0.06-0.03l-0.42-0.18l-0.03-0.01c-4.24-1.8-6.21-6.7-4.41-10.94C235.4,18.8,240.24,16.83,244.46,18.56z"/>
		<path class="st0" d="M267.42,30.14l0.43,0.26c4.01,2.44,5.27,7.67,2.83,11.67c-2.44,4.01-7.67,5.27-11.67,2.83
			c-0.02-0.01-0.03-0.02-0.05-0.03l-0.06-0.04l-0.38-0.24l-0.03-0.02c-3.97-2.49-5.18-7.73-2.69-11.7
			C258.27,28.94,263.46,27.73,267.42,30.14z"/>
		<path class="st0" d="M288.27,45.2l0.38,0.33c3.62,3.08,4.05,8.51,0.97,12.13c-3.08,3.62-8.51,4.05-12.13,0.97l-0.05-0.04
			l-0.02-0.01l-0.34-0.3l-0.02-0.02c-3.59-3.11-3.99-8.54-0.88-12.13C279.28,42.54,284.68,42.14,288.27,45.2z"/>
		<path class="st0" d="M306.54,63.33l0.33,0.38c3.13,3.64,2.72,9.13-0.93,12.27s-9.13,2.72-12.27-0.93L293.63,75l-0.01-0.02
			l-0.29-0.35l-0.02-0.02c-3.1-3.67-2.65-9.15,1.02-12.26C297.97,59.27,303.43,59.71,306.54,63.33z"/>
		<path class="st0" d="M321.79,84.07l0.27,0.43c2.56,4.13,1.29,9.55-2.84,12.11c-4.13,2.56-9.55,1.29-12.11-2.84l-0.04-0.06
			l-0.01-0.02l-0.24-0.39l-0.02-0.03c-2.53-4.15-1.21-9.55,2.93-12.08C313.87,78.68,319.25,79.97,321.79,84.07z"/>
		<path class="st0" d="M333.66,106.94l0.2,0.47c1.91,4.52-0.21,9.73-4.73,11.64s-9.73-0.21-11.64-4.73l-0.03-0.06l-0.01-0.02
			l-0.17-0.42l-0.01-0.03c-1.87-4.53,0.28-9.73,4.82-11.6C326.6,100.32,331.77,102.45,333.66,106.94z"/>
		<path class="st0" d="M341.84,131.4l0.12,0.49c1.19,4.81-1.74,9.68-6.56,10.88c-4.81,1.19-9.68-1.74-10.88-6.56l-0.02-0.07
			l-0.01-0.02l-0.1-0.44l-0.01-0.03c-1.16-4.82,1.82-9.67,6.64-10.82C335.84,123.68,340.66,126.62,341.84,131.4z"/>
		<path class="st0" d="M346.11,156.85l0.04,0.5c0.43,4.99-3.27,9.39-8.26,9.82c-4.99,0.43-9.39-3.27-9.82-8.26l-0.01-0.07l0-0.02
			l-0.04-0.45l0-0.03c-0.39-5,3.34-9.36,8.34-9.75C341.33,148.2,345.68,151.89,346.11,156.85z"/>
		<path class="st0" d="M346.35,182.66l-0.04,0.5c-0.37,5.05-4.77,8.84-9.81,8.47c-5.05-0.37-8.84-4.77-8.47-9.81v0l0-0.03l0.03-0.45
			l0-0.03c0.37-5.05,4.77-8.84,9.81-8.47C342.93,173.22,346.72,177.62,346.35,182.66z"/>
		<path class="st0" d="M342.41,208.22l-0.12,0.49c-1.19,4.89-6.12,7.89-11.01,6.69c-4.86-1.18-7.85-6.06-6.72-10.91l0.01-0.04
			l0.1-0.44l0.01-0.02c1.14-4.9,6.04-7.96,10.94-6.82c4.9,1.14,7.96,6.04,6.82,10.94L342.41,208.22z"/>
		<path class="st0" d="M334.12,232.75l-0.21,0.46c-1.98,4.48-7.21,6.5-11.69,4.52c-4.39-1.94-6.42-7.01-4.63-11.42l0.02-0.06
			l0.17-0.42l0-0.01c1.84-4.54,7.01-6.73,11.55-4.89c4.54,1.84,6.73,7.01,4.89,11.55C334.2,232.57,334.16,232.68,334.12,232.75z"/>
		<path class="st0" d="M321.68,255.41l-0.28,0.42c-2.58,3.85-7.79,4.88-11.64,2.3c-3.74-2.51-4.82-7.51-2.5-11.32l0.04-0.06
			l0.23-0.38l0-0.01c2.41-3.96,7.58-5.22,11.55-2.8c3.96,2.41,5.22,7.58,2.8,11.55C321.82,255.19,321.74,255.31,321.68,255.41z"/>
		<path class="st0" d="M305.59,275.5l-0.35,0.36c-2.98,3.11-7.91,3.23-11.03,0.25c-3.01-2.87-3.22-7.58-0.54-10.7l0.05-0.05
			l0.3-0.34c2.81-3.27,7.74-3.65,11.02-0.84c3.27,2.81,3.65,7.74,0.84,11.02C305.78,275.29,305.67,275.41,305.59,275.5z"/>
		<path class="st0" d="M286.42,292.53l-0.4,0.3c-3.16,2.36-7.64,1.71-10-1.45c-2.28-3.05-1.75-7.33,1.13-9.75l0.05-0.04l0.35-0.29
			c3.03-2.54,7.55-2.13,10.08,0.9c2.53,3.03,2.13,7.55-0.9,10.08C286.63,292.37,286.51,292.46,286.42,292.53z"/>
		<path class="st0" d="M264.81,306.14l-0.44,0.23c-3.21,1.66-7.15,0.42-8.82-2.79c-1.62-3.11-0.49-6.92,2.51-8.66l0.04-0.03
			l0.4-0.23l0.01,0c3.13-1.81,7.14-0.74,8.95,2.39c1.81,3.13,0.74,7.14-2.39,8.95C264.99,306.04,264.89,306.1,264.81,306.14z"/>
		<path class="st0" d="M241.37,316.04l-0.47,0.16c-3.17,1.04-6.58-0.69-7.63-3.86c-1.02-3.1,0.61-6.43,3.65-7.55l0.04-0.01
			l0.43-0.16l0.01,0c3.14-1.15,6.61,0.46,7.77,3.59s-0.46,6.61-3.59,7.77C241.51,315.99,241.43,316.02,241.37,316.04z"/>
		<path class="st0" d="M216.71,322.07l-0.49,0.08c-3.14,0.5-6.09-1.64-6.59-4.78c-0.5-3.11,1.6-6.03,4.68-6.57l0.03,0l0.45-0.08
			l0.02,0c3.13-0.55,6.12,1.54,6.67,4.68c0.55,3.13-1.54,6.12-4.68,6.67C216.78,322.06,216.73,322.07,216.71,322.07z"/>
		<path class="st0" d="M191.45,324.08l-0.5,0c-3.13,0-5.66-2.53-5.67-5.66c0-3.13,2.53-5.66,5.66-5.67l0.04,0l0.02,0l0.46,0l0.02,0
			c3.13,0.02,5.64,2.57,5.62,5.69C197.08,321.56,194.55,324.07,191.45,324.08z"/>
		<path class="st0" d="M166.18,322.04l-0.49-0.08c-3.13-0.53-5.24-3.49-4.71-6.62c0.53-3.13,3.49-5.24,6.62-4.71l0.04,0.01l0.02,0
			l0.45,0.08l0.02,0c3.12,0.55,5.21,3.53,4.66,6.65C172.25,320.48,169.29,322.56,166.18,322.04z"/>
		<path class="st0" d="M141.53,315.79l-0.47-0.17c-3.12-1.1-4.76-4.52-3.66-7.64c1.1-3.12,4.52-4.76,7.64-3.66
			c0.03,0.01,0.06,0.02,0.09,0.03l0.04,0.02l0.43,0.16l0.03,0.01c3.09,1.16,4.66,4.61,3.49,7.71
			C147.96,315.3,144.58,316.86,141.53,315.79z"/>
		<path class="st0" d="M118.26,305.35l-0.44-0.25c-3.07-1.73-4.16-5.63-2.43-8.7c1.73-3.07,5.63-4.16,8.7-2.43
			c0.06,0.03,0.11,0.06,0.17,0.1l0.03,0.02l0.39,0.24l0.03,0.02c3.01,1.83,3.96,5.76,2.13,8.77
			C125.04,306.05,121.24,307.02,118.26,305.35z"/>
		<path class="st0" d="M97.1,290.97l-0.39-0.32c-2.96-2.42-3.39-6.79-0.96-9.74s6.79-3.39,9.74-0.96c0.08,0.06,0.15,0.13,0.23,0.19
			l0.02,0.02l0.34,0.3l0.03,0.03c2.84,2.56,3.06,6.93,0.51,9.76C104.14,293,99.94,293.29,97.1,290.97z"/>
		<path class="st0" d="M78.71,273.04l-0.33-0.38c-2.7-3.16-2.33-7.92,0.83-10.62c3.16-2.7,7.92-2.33,10.62,0.83
			c0.08,0.09,0.15,0.18,0.22,0.27l0.02,0.03l0.28,0.36l0.03,0.04c2.54,3.29,1.93,8.01-1.36,10.55
			C85.84,276.57,81.3,276.06,78.71,273.04z"/>
		<path class="st0" d="M63.74,252.05l-0.25-0.44c-2.26-3.89-0.94-8.87,2.94-11.13s8.87-0.94,11.13,2.94c0.06,0.1,0.11,0.2,0.17,0.3
			l0.02,0.03l0.21,0.4l0.02,0.04c2.08,3.98,0.53,8.89-3.44,10.97C70.67,257.18,65.92,255.77,63.74,252.05z"/>
		<path class="st0" d="M52.74,228.61l-0.17-0.48c-1.62-4.52,0.73-9.49,5.25-11.11c4.52-1.62,9.49,0.73,11.11,5.25
			c0.03,0.09,0.06,0.19,0.09,0.28l0.01,0.04l0.14,0.43l0.02,0.05c1.44,4.57-1.09,9.44-5.66,10.89
			C59.07,235.36,54.31,232.97,52.74,228.61z"/>
		<path class="st0" d="M46.17,203.46l-0.08-0.5c-0.82-4.98,2.55-9.69,7.54-10.51c4.98-0.82,9.69,2.55,10.51,7.54
			c0.02,0.1,0.03,0.2,0.05,0.31l0.01,0.05l0.06,0.44l0.01,0.06c0.63,5.01-2.91,9.58-7.92,10.21
			C51.45,211.65,46.97,208.27,46.17,203.46z"/>
		<path class="st0" d="M44.47,177.47l0.02-0.51c0.16-5.15,4.47-9.2,9.63-9.04c5.15,0.16,9.2,4.47,9.04,9.63l0,0.05l0,0.03
			l-0.02,0.44l0,0.04c-0.19,5.15-4.52,9.18-9.67,8.99C48.31,186.9,44.29,182.62,44.47,177.47z"/>
		<path class="st0" d="M47.61,151.57l0.11-0.5c1.1-5.06,6.1-8.27,11.16-7.17s8.27,6.1,7.17,11.16l-0.01,0.03l-0.01,0.03l-0.1,0.43
			l-0.01,0.04c-1.12,5.06-6.13,8.25-11.19,7.13S46.48,156.62,47.61,151.57z"/>
		<path class="st0" d="M55.57,126.62l0.2-0.47c2.06-4.78,7.61-6.98,12.39-4.92c4.78,2.06,6.98,7.61,4.92,12.39l-0.01,0.03
			l-0.01,0.03l-0.18,0.41l-0.02,0.04c-2.08,4.77-7.63,6.95-12.4,4.87S53.49,131.39,55.57,126.62z"/>
		<path class="st0" d="M68.17,103.64l0.29-0.42c2.96-4.32,8.86-5.43,13.18-2.48c4.32,2.96,5.43,8.86,2.48,13.18l-0.03,0.05
			l-0.02,0.03l-0.25,0.36l-0.02,0.03c-2.98,4.31-8.89,5.38-13.19,2.4C66.31,113.82,65.23,107.94,68.17,103.64z"/>
		<path class="st0" d="M84.93,83.5l0.37-0.36c3.75-3.71,9.8-3.67,13.51,0.08s3.67,9.8-0.08,13.51l-0.04,0.04l-0.02,0.02l-0.32,0.31
			l-0.03,0.03c-3.77,3.69-9.82,3.61-13.51-0.16C81.13,93.21,81.19,87.19,84.93,83.5z"/>
		<path class="st0" d="M105.24,66.95l0.43-0.28c4.4-2.92,10.34-1.72,13.26,2.69c2.92,4.4,1.72,10.34-2.69,13.26l-0.03,0.02
			l-0.37,0.24l-0.03,0.02c-4.4,2.92-10.34,1.72-13.26-2.68C99.63,75.81,100.83,69.87,105.24,66.95L105.24,66.95z"/>
		<path class="st0" d="M128.35,54.57l0.48-0.2c4.88-2.03,10.47,0.28,12.5,5.16c2.03,4.88-0.28,10.47-5.16,12.5l-0.03,0.01
			l-0.41,0.17l-0.03,0.01c-4.88,2.03-10.47-0.28-12.5-5.15C121.16,62.2,123.47,56.6,128.35,54.57L128.35,54.57z"/>
		<path class="st0" d="M153.42,46.91l0.5-0.1c5.13-1.02,10.12,2.3,11.15,7.44c1.02,5.1-2.27,10.06-7.35,11.13l-0.05,0.01l-0.43,0.09
			l-0.03,0.01c-5.12,1.07-10.15-2.21-11.22-7.34c-1.07-5.12,2.21-10.15,7.34-11.22L153.42,46.91z"/>
		<path class="st0" d="M179.47,44.29l0.51,0c5.14,0,9.31,4.16,9.32,9.3c0,5.09-4.08,9.23-9.15,9.32l-0.05,0l-0.44,0.01l-0.02,0
			c-5.14,0.09-9.38-4.01-9.47-9.16c-0.09-5.14,4.01-9.38,9.16-9.47C179.36,44.29,179.44,44.29,179.47,44.29z"/>
		<path class="st0" d="M205.51,46.77l0.5,0.1c4.91,0.98,8.09,5.75,7.11,10.66c-0.96,4.83-5.6,7.99-10.42,7.16l-0.07-0.01l-0.44-0.08
			l-0.02,0c-4.93-0.86-8.24-5.55-7.39-10.48s5.55-8.24,10.48-7.39C205.35,46.74,205.45,46.76,205.51,46.77z"/>
		<path class="st0" d="M230.53,54.56l0.47,0.21c4.37,1.92,6.36,7.02,4.44,11.38c-1.86,4.23-6.7,6.23-10.98,4.6l-0.08-0.03
			l-0.41-0.16c-4.46-1.71-6.7-6.71-5-11.17c1.71-4.46,6.71-6.7,11.17-5C230.26,54.45,230.41,54.51,230.53,54.56z"/>
		<path class="st0" d="M253.22,67.47l0.41,0.3c3.59,2.59,4.39,7.59,1.81,11.18c-2.49,3.45-7.23,4.33-10.78,2.08l-0.07-0.05
			l-0.37-0.24c-3.73-2.38-4.83-7.34-2.45-11.08c2.38-3.73,7.34-4.83,11.08-2.45C252.96,67.29,253.11,67.38,253.22,67.47z"/>
		<path class="st0" d="M272.63,84.71l0.34,0.38c2.72,2.98,2.51,7.6-0.47,10.32c-2.87,2.62-7.26,2.52-10.01-0.16l-0.05-0.05
			l-0.32-0.31c-2.89-2.82-2.95-7.46-0.13-10.35s7.46-2.95,10.35-0.13C272.43,84.49,272.54,84.61,272.63,84.71z"/>
		<path class="st0" d="M288.07,105.39l0.26,0.43c1.89,3.16,0.86,7.24-2.3,9.13c-3.06,1.83-6.99,0.92-8.95-2.01l-0.03-0.05
			l-0.25-0.38l0-0.01c-2.04-3.06-1.21-7.2,1.85-9.25s7.2-1.21,9.25,1.85C287.95,105.2,288.02,105.31,288.07,105.39z"/>
		<path class="st0" d="M299.06,128.62l0.17,0.47c1.13,3.21-0.54,6.73-3.75,7.86c-3.14,1.11-6.57-0.47-7.78-3.54l-0.02-0.04
			l-0.17-0.42l-0.01-0.01c-1.25-3.17,0.31-6.75,3.48-8c3.17-1.25,6.75,0.31,8,3.48C299.01,128.48,299.04,128.56,299.06,128.62z"/>
		<path class="st0" d="M305.22,153.49l0.07,0.5c0.44,3.2-1.79,6.15-4.99,6.59c-3.15,0.43-6.05-1.72-6.57-4.83l-0.01-0.04l-0.07-0.45
			l0-0.02c-0.52-3.19,1.64-6.2,4.83-6.72s6.2,1.64,6.72,4.83C305.2,153.38,305.21,153.45,305.22,153.49z"/>
		<path class="st0" d="M306.28,179.03l-0.03,0.5c-0.19,3.13-2.89,5.51-6.02,5.32c-3.11-0.19-5.48-2.85-5.32-5.96l0-0.03l0.02-0.45
			l0-0.02c0.16-3.13,2.83-5.54,5.97-5.38c3.13,0.16,5.54,2.83,5.38,5.97L306.28,179.03z"/>
		<path class="st0" d="M301.51,204.48l-0.17,0.48c-1.03,2.9-4.22,4.41-7.12,3.37c-2.87-1.02-4.38-4.16-3.4-7.04l0.01-0.04l0.14-0.42
			l0.01-0.03c0.99-2.91,4.16-4.47,7.07-3.48c2.91,0.99,4.47,4.16,3.48,7.07C301.53,204.42,301.52,204.46,301.51,204.48z"/>
		<path class="st0" d="M289.5,227.36l-0.29,0.41c-1.72,2.43-5.09,3-7.52,1.27c-2.4-1.7-2.98-5-1.34-7.42l0.02-0.03l0.26-0.38
			l0.01-0.01c1.67-2.47,5.03-3.11,7.5-1.43c2.47,1.67,3.11,5.03,1.43,7.5C289.55,227.29,289.52,227.34,289.5,227.36z"/>
	</g>
</g>
</svg>
